<svg xmlns="http://www.w3.org/2000/svg" xmlns:xlink="http://www.w3.org/1999/xlink" width="500" zoomAndPan="magnify" viewBox="0 0 375 374.999991" height="500" preserveAspectRatio="xMidYMid meet" version="1.0"><defs><clipPath id="afff0d5c00"><path d="M 133 106 L 240 106 L 240 222 L 133 222 Z M 133 106 " clip-rule="nonzero"/></clipPath><clipPath id="a35ef28492"><path d="M 136.148438 105.3125 L 241.871094 107.683594 L 239.3125 221.65625 L 133.589844 219.285156 Z M 136.148438 105.3125 " clip-rule="nonzero"/></clipPath><clipPath id="6818ad8749"><path d="M 136.148438 105.3125 L 241.871094 107.683594 L 239.3125 221.65625 L 133.589844 219.285156 Z M 136.148438 105.3125 " clip-rule="nonzero"/></clipPath><clipPath id="3d49e29111"><path d="M 185 150 L 189 150 L 189 186 L 185 186 Z M 185 150 " clip-rule="nonzero"/></clipPath><clipPath id="2ee368ae9c"><path d="M 180.605469 151.769531 L 188.742188 150.425781 L 194.335938 184.359375 L 186.203125 185.699219 Z M 180.605469 151.769531 " clip-rule="nonzero"/></clipPath><clipPath id="f2ae8fd0a6"><path d="M 188.953125 151.851562 C 188.40625 176.25 189.332031 182.570312 188.714844 184.382812 C 188.535156 184.96875 188.300781 185.242188 187.929688 185.386719 C 187.515625 185.53125 186.644531 185.320312 186.355469 185.007812 C 186.074219 184.738281 185.972656 184.117188 186.113281 183.777344 C 186.242188 183.359375 186.984375 182.800781 187.421875 182.808594 C 187.863281 182.8125 188.554688 183.414062 188.703125 183.828125 C 188.839844 184.164062 188.664062 184.789062 188.386719 185.03125 C 188.082031 185.359375 187.191406 185.507812 186.8125 185.371094 C 186.433594 185.234375 186.265625 184.945312 186.046875 184.34375 C 185.242188 181.855469 185.648438 169.632812 185.773438 163.65625 C 185.898438 159.109375 186.019531 153.089844 186.554688 151.53125 C 186.691406 151.152344 186.828125 151.011719 187.039062 150.855469 C 187.253906 150.703125 187.59375 150.605469 187.878906 150.636719 C 188.121094 150.675781 188.464844 150.820312 188.617188 151.03125 C 188.8125 151.238281 188.953125 151.851562 188.953125 151.851562 " clip-rule="nonzero"/></clipPath><clipPath id="203afc14ed"><path d="M 170 166 L 205 166 L 205 171 L 170 171 Z M 170 166 " clip-rule="nonzero"/></clipPath><clipPath id="f88a71c01d"><path d="M 203.496094 160.46875 L 205.207031 168.53125 L 171.566406 175.671875 L 169.855469 167.605469 Z M 203.496094 160.46875 " clip-rule="nonzero"/></clipPath><clipPath id="2d3b0f9bc1"><path d="M 203.792969 168.808594 C 179.398438 169.375 173.125 170.585938 171.289062 170.054688 C 170.695312 169.902344 170.40625 169.679688 170.25 169.316406 C 170.082031 168.910156 170.257812 168.03125 170.554688 167.726562 C 170.8125 167.433594 171.425781 167.300781 171.773438 167.429688 C 172.195312 167.539062 172.789062 168.253906 172.800781 168.691406 C 172.8125 169.128906 172.246094 169.851562 171.839844 170.019531 C 171.511719 170.167969 170.878906 170.023438 170.625 169.757812 C 170.28125 169.46875 170.09375 168.585938 170.214844 168.199219 C 170.332031 167.816406 170.613281 167.632812 171.203125 167.390625 C 173.652344 166.46875 185.878906 166.320312 191.855469 166.171875 C 196.40625 166.089844 202.421875 165.933594 204.003906 166.398438 C 204.390625 166.519531 204.539062 166.648438 204.703125 166.851562 C 204.867188 167.058594 204.976562 167.394531 204.957031 167.679688 C 204.929688 167.925781 204.804688 168.273438 204.597656 168.4375 C 204.398438 168.640625 203.792969 168.808594 203.792969 168.808594 " clip-rule="nonzero"/></clipPath></defs><g clip-path="url(#afff0d5c00)"><g clip-path="url(#a35ef28492)"><g clip-path="url(#6818ad8749)"><path fill="#00ff43" d="M 195.078125 196.800781 C 194.40625 196.785156 193.773438 196.9375 193.210938 197.214844 L 187.4375 194.617188 C 186.894531 194.371094 186.273438 194.359375 185.71875 194.585938 L 140.472656 212.984375 L 142.25 209.347656 C 144.269531 209.191406 145.878906 207.523438 145.925781 205.457031 C 145.976562 203.253906 144.230469 201.425781 142.023438 201.375 C 139.820312 201.328125 137.992188 203.074219 137.941406 205.277344 C 137.925781 205.992188 138.097656 206.667969 138.414062 207.253906 L 134.035156 216.199219 C 133.640625 217.015625 133.785156 217.988281 134.402344 218.648438 C 134.8125 219.089844 135.375 219.332031 135.949219 219.34375 C 136.242188 219.351562 136.539062 219.296875 136.820312 219.183594 L 186.496094 198.984375 L 191 201.011719 C 191.113281 203.074219 192.796875 204.738281 194.898438 204.785156 C 197.101562 204.835938 198.929688 203.085938 198.980469 200.882812 C 199.03125 198.675781 197.28125 196.847656 195.078125 196.800781 Z M 201.644531 132.113281 L 191.078125 107.820312 C 190.738281 107.039062 189.976562 106.527344 189.125 106.507812 C 188.273438 106.488281 187.488281 106.964844 187.113281 107.730469 L 157.453125 168.347656 C 155.324219 168.386719 153.585938 170.101562 153.535156 172.25 C 153.488281 174.457031 155.234375 176.285156 157.441406 176.332031 C 159.644531 176.382812 161.472656 174.632812 161.523438 172.429688 C 161.535156 171.808594 161.410156 171.222656 161.167969 170.691406 L 188.960938 113.898438 L 197.660156 133.902344 C 197.277344 134.5 197.046875 135.207031 197.03125 135.964844 C 196.980469 138.171875 198.726562 140 200.933594 140.046875 C 203.136719 140.097656 204.964844 138.351562 205.015625 136.144531 C 205.0625 134.121094 203.589844 132.414062 201.644531 132.113281 Z M 238.769531 220.984375 C 238.339844 221.410156 237.765625 221.628906 237.183594 221.617188 C 236.898438 221.609375 236.609375 221.546875 236.339844 221.421875 L 223.011719 215.425781 C 222.367188 215.839844 221.597656 216.070312 220.773438 216.054688 C 218.566406 216.003906 216.820312 214.175781 216.867188 211.972656 C 216.917969 209.765625 218.746094 208.019531 220.953125 208.066406 C 222.914062 208.109375 224.515625 209.566406 224.808594 211.441406 L 232.976562 215.121094 L 212.484375 168 C 210.5625 167.671875 209.117188 165.980469 209.164062 163.972656 C 209.210938 161.765625 211.039062 160.019531 213.242188 160.066406 C 215.449219 160.117188 217.199219 161.945312 217.148438 164.152344 C 217.128906 164.929688 216.890625 165.648438 216.492188 166.253906 L 239.238281 218.5625 C 239.597656 219.386719 239.410156 220.351562 238.769531 220.984375 " fill-opacity="1" fill-rule="nonzero"/></g></g></g><g clip-path="url(#3d49e29111)"><g clip-path="url(#2ee368ae9c)"><g clip-path="url(#f2ae8fd0a6)"><path fill="#00ff43" d="M 178.882812 150.53125 L 190.019531 148.695312 L 196.117188 185.671875 L 184.980469 187.507812 Z M 178.882812 150.53125 " fill-opacity="1" fill-rule="nonzero"/></g></g></g><g clip-path="url(#203afc14ed)"><g clip-path="url(#f88a71c01d)"><g clip-path="url(#2d3b0f9bc1)"><path fill="#00ff43" d="M 204.652344 158.691406 L 206.996094 169.730469 L 170.335938 177.507812 L 167.992188 166.46875 Z M 204.652344 158.691406 " fill-opacity="1" fill-rule="nonzero"/></g></g></g></svg>