<svg xmlns="http://www.w3.org/2000/svg" xmlns:xlink="http://www.w3.org/1999/xlink" width="500" zoomAndPan="magnify" viewBox="0 0 375 374.999991" height="500" preserveAspectRatio="xMidYMid meet" version="1.0"><defs><clipPath id="6cf6a78cf7"><path d="M 134.5 106.484375 L 240.25 106.484375 L 240.25 220.484375 L 134.5 220.484375 Z M 134.5 106.484375 " clip-rule="nonzero"/></clipPath><clipPath id="4c5df22c6e"><path d="M 185 150 L 189 150 L 189 186 L 185 186 Z M 185 150 " clip-rule="nonzero"/></clipPath><clipPath id="c17ae976b2"><path d="M 180.605469 151.769531 L 188.742188 150.425781 L 194.335938 184.359375 L 186.203125 185.699219 Z M 180.605469 151.769531 " clip-rule="nonzero"/></clipPath><clipPath id="afb4d328ae"><path d="M 188.953125 151.851562 C 188.40625 176.25 189.332031 182.570312 188.714844 184.382812 C 188.535156 184.96875 188.300781 185.242188 187.929688 185.386719 C 187.515625 185.53125 186.644531 185.320312 186.355469 185.007812 C 186.074219 184.738281 185.972656 184.117188 186.113281 183.777344 C 186.242188 183.359375 186.984375 182.800781 187.421875 182.808594 C 187.863281 182.8125 188.554688 183.414062 188.703125 183.828125 C 188.839844 184.164062 188.664062 184.789062 188.386719 185.03125 C 188.082031 185.359375 187.191406 185.507812 186.8125 185.371094 C 186.433594 185.234375 186.265625 184.945312 186.046875 184.34375 C 185.242188 181.855469 185.648438 169.636719 185.773438 163.65625 C 185.898438 159.109375 186.019531 153.089844 186.554688 151.53125 C 186.691406 151.152344 186.828125 151.011719 187.039062 150.855469 C 187.253906 150.703125 187.59375 150.605469 187.878906 150.636719 C 188.121094 150.675781 188.464844 150.820312 188.617188 151.03125 C 188.8125 151.238281 188.953125 151.851562 188.953125 151.851562 " clip-rule="nonzero"/></clipPath><clipPath id="1a942762b5"><path d="M 170 166 L 205 166 L 205 171 L 170 171 Z M 170 166 " clip-rule="nonzero"/></clipPath><clipPath id="06ddb43f8f"><path d="M 203.496094 160.46875 L 205.207031 168.53125 L 171.566406 175.671875 L 169.855469 167.605469 Z M 203.496094 160.46875 " clip-rule="nonzero"/></clipPath><clipPath id="f8b31cdbbd"><path d="M 203.792969 168.808594 C 179.398438 169.375 173.125 170.585938 171.289062 170.054688 C 170.695312 169.902344 170.40625 169.679688 170.25 169.316406 C 170.082031 168.910156 170.257812 168.03125 170.554688 167.726562 C 170.8125 167.433594 171.425781 167.300781 171.773438 167.429688 C 172.195312 167.539062 172.789062 168.253906 172.800781 168.691406 C 172.8125 169.128906 172.246094 169.851562 171.839844 170.019531 C 171.511719 170.167969 170.878906 170.023438 170.625 169.757812 C 170.28125 169.46875 170.09375 168.585938 170.214844 168.199219 C 170.332031 167.816406 170.613281 167.632812 171.203125 167.390625 C 173.652344 166.46875 185.878906 166.320312 191.855469 166.171875 C 196.40625 166.089844 202.421875 165.933594 204.003906 166.398438 C 204.390625 166.519531 204.539062 166.648438 204.703125 166.851562 C 204.867188 167.058594 204.976562 167.394531 204.957031 167.679688 C 204.929688 167.925781 204.804688 168.273438 204.597656 168.4375 C 204.398438 168.640625 203.792969 168.808594 203.792969 168.808594 " clip-rule="nonzero"/></clipPath></defs><g clip-path="url(#6cf6a78cf7)"><path fill="#000000" d="M 195.46875 196.625 C 194.800781 196.625 194.167969 196.789062 193.613281 197.082031 L 187.785156 194.613281 C 187.234375 194.382812 186.613281 194.382812 186.0625 194.621094 L 141.242188 214.03125 L 142.9375 210.355469 C 144.953125 210.152344 146.527344 208.453125 146.527344 206.382812 C 146.527344 204.179688 144.738281 202.390625 142.53125 202.390625 C 140.324219 202.390625 138.539062 204.179688 138.539062 206.382812 C 138.539062 207.097656 138.726562 207.769531 139.054688 208.347656 L 134.878906 217.390625 C 134.5 218.210938 134.667969 219.183594 135.300781 219.832031 C 135.71875 220.261719 136.285156 220.492188 136.863281 220.492188 C 137.15625 220.492188 137.449219 220.429688 137.730469 220.308594 L 186.941406 199 L 191.488281 200.925781 C 191.644531 202.988281 193.367188 204.613281 195.46875 204.613281 C 197.675781 204.613281 199.464844 202.824219 199.464844 200.617188 C 199.464844 198.414062 197.675781 196.625 195.46875 196.625 Z M 200.582031 131.804688 L 189.476562 107.757812 C 189.117188 106.984375 188.34375 106.488281 187.492188 106.488281 C 186.640625 106.488281 185.867188 106.984375 185.511719 107.757812 L 157.214844 169.023438 C 155.085938 169.113281 153.386719 170.863281 153.386719 173.015625 C 153.386719 175.21875 155.175781 177.007812 157.382812 177.007812 C 159.589844 177.007812 161.375 175.21875 161.375 173.015625 C 161.375 172.394531 161.234375 171.808594 160.984375 171.285156 L 187.492188 113.882812 L 196.640625 133.6875 C 196.269531 134.292969 196.058594 135.003906 196.058594 135.761719 C 196.058594 137.96875 197.84375 139.757812 200.050781 139.757812 C 202.257812 139.757812 204.042969 137.96875 204.042969 135.761719 C 204.042969 133.738281 202.535156 132.066406 200.582031 131.804688 Z M 239.691406 219.824219 C 239.273438 220.257812 238.703125 220.492188 238.125 220.492188 C 237.835938 220.492188 237.546875 220.433594 237.273438 220.316406 L 223.816406 214.617188 C 223.179688 215.046875 222.414062 215.296875 221.589844 215.296875 C 219.382812 215.296875 217.59375 213.507812 217.59375 211.304688 C 217.59375 209.097656 219.382812 207.308594 221.589844 207.308594 C 223.554688 207.308594 225.183594 208.726562 225.519531 210.597656 L 233.773438 214.089844 L 212.226562 167.441406 C 210.296875 167.160156 208.8125 165.496094 208.8125 163.488281 C 208.8125 161.28125 210.601562 159.496094 212.808594 159.496094 C 215.015625 159.496094 216.800781 161.28125 216.800781 163.488281 C 216.800781 164.269531 216.578125 164.992188 216.191406 165.609375 L 240.105469 217.390625 C 240.484375 218.210938 240.320312 219.175781 239.691406 219.824219 " fill-opacity="1" fill-rule="nonzero"/></g><g clip-path="url(#4c5df22c6e)"><g clip-path="url(#c17ae976b2)"><g clip-path="url(#afb4d328ae)"><path fill="#000000" d="M 178.882812 150.53125 L 190.019531 148.695312 L 196.117188 185.671875 L 184.980469 187.507812 Z M 178.882812 150.53125 " fill-opacity="1" fill-rule="nonzero"/></g></g></g><g clip-path="url(#1a942762b5)"><g clip-path="url(#06ddb43f8f)"><g clip-path="url(#f8b31cdbbd)"><path fill="#000000" d="M 204.652344 158.691406 L 206.996094 169.730469 L 170.335938 177.507812 L 167.992188 166.46875 Z M 204.652344 158.691406 " fill-opacity="1" fill-rule="nonzero"/></g></g></g></svg>