<svg xmlns="http://www.w3.org/2000/svg" xmlns:xlink="http://www.w3.org/1999/xlink" width="500" zoomAndPan="magnify" viewBox="0 0 375 374.999991" height="500" preserveAspectRatio="xMidYMid meet" version="1.0"><defs><g/><clipPath id="2b663982a1"><path d="M 134.5 106.484375 L 240.25 106.484375 L 240.25 220.484375 L 134.5 220.484375 Z M 134.5 106.484375 " clip-rule="nonzero"/></clipPath><clipPath id="30d6ac9a4e"><path d="M 185 150 L 189 150 L 189 186 L 185 186 Z M 185 150 " clip-rule="nonzero"/></clipPath><clipPath id="c68596c9ae"><path d="M 180.605469 151.769531 L 188.742188 150.425781 L 194.335938 184.359375 L 186.203125 185.699219 Z M 180.605469 151.769531 " clip-rule="nonzero"/></clipPath><clipPath id="2e7fdaeb47"><path d="M 188.953125 151.851562 C 188.40625 176.25 189.332031 182.570312 188.714844 184.382812 C 188.535156 184.96875 188.300781 185.242188 187.929688 185.386719 C 187.515625 185.53125 186.644531 185.320312 186.355469 185.007812 C 186.074219 184.738281 185.972656 184.117188 186.113281 183.777344 C 186.242188 183.359375 186.984375 182.800781 187.421875 182.808594 C 187.863281 182.8125 188.554688 183.414062 188.703125 183.828125 C 188.839844 184.164062 188.664062 184.789062 188.386719 185.03125 C 188.082031 185.359375 187.191406 185.507812 186.8125 185.371094 C 186.433594 185.234375 186.265625 184.945312 186.046875 184.34375 C 185.242188 181.855469 185.648438 169.632812 185.773438 163.65625 C 185.898438 159.109375 186.019531 153.089844 186.554688 151.53125 C 186.691406 151.152344 186.828125 151.011719 187.039062 150.855469 C 187.253906 150.703125 187.59375 150.605469 187.878906 150.636719 C 188.121094 150.675781 188.464844 150.820312 188.617188 151.03125 C 188.8125 151.238281 188.953125 151.851562 188.953125 151.851562 " clip-rule="nonzero"/></clipPath><clipPath id="ec1708d177"><path d="M 170 166 L 205 166 L 205 171 L 170 171 Z M 170 166 " clip-rule="nonzero"/></clipPath><clipPath id="47e9026876"><path d="M 203.496094 160.46875 L 205.207031 168.53125 L 171.566406 175.671875 L 169.855469 167.605469 Z M 203.496094 160.46875 " clip-rule="nonzero"/></clipPath><clipPath id="6124265a9c"><path d="M 203.792969 168.808594 C 179.398438 169.375 173.125 170.585938 171.289062 170.054688 C 170.695312 169.902344 170.40625 169.683594 170.25 169.316406 C 170.082031 168.910156 170.257812 168.03125 170.554688 167.726562 C 170.8125 167.433594 171.425781 167.300781 171.773438 167.429688 C 172.195312 167.539062 172.789062 168.253906 172.800781 168.691406 C 172.8125 169.132812 172.246094 169.851562 171.839844 170.019531 C 171.511719 170.167969 170.878906 170.023438 170.625 169.757812 C 170.28125 169.46875 170.09375 168.585938 170.214844 168.199219 C 170.332031 167.816406 170.613281 167.632812 171.203125 167.390625 C 173.652344 166.46875 185.878906 166.320312 191.855469 166.171875 C 196.40625 166.089844 202.421875 165.933594 204.003906 166.398438 C 204.390625 166.519531 204.539062 166.648438 204.703125 166.851562 C 204.867188 167.058594 204.976562 167.394531 204.957031 167.679688 C 204.929688 167.925781 204.804688 168.273438 204.597656 168.4375 C 204.398438 168.640625 203.792969 168.808594 203.792969 168.808594 " clip-rule="nonzero"/></clipPath></defs><g clip-path="url(#2b663982a1)"><path fill="#000000" d="M 195.46875 196.625 C 194.800781 196.625 194.167969 196.789062 193.613281 197.082031 L 187.785156 194.613281 C 187.234375 194.382812 186.613281 194.382812 186.0625 194.621094 L 141.242188 214.03125 L 142.9375 210.355469 C 144.953125 210.152344 146.527344 208.453125 146.527344 206.382812 C 146.527344 204.179688 144.738281 202.390625 142.53125 202.390625 C 140.324219 202.390625 138.539062 204.179688 138.539062 206.382812 C 138.539062 207.097656 138.726562 207.769531 139.054688 208.347656 L 134.878906 217.390625 C 134.5 218.210938 134.667969 219.183594 135.300781 219.832031 C 135.71875 220.261719 136.285156 220.492188 136.863281 220.492188 C 137.15625 220.492188 137.449219 220.429688 137.730469 220.308594 L 186.941406 199 L 191.488281 200.925781 C 191.644531 202.988281 193.367188 204.613281 195.46875 204.613281 C 197.675781 204.613281 199.464844 202.824219 199.464844 200.617188 C 199.464844 198.414062 197.675781 196.625 195.46875 196.625 Z M 200.582031 131.804688 L 189.476562 107.757812 C 189.117188 106.984375 188.34375 106.488281 187.492188 106.488281 C 186.640625 106.488281 185.867188 106.984375 185.511719 107.757812 L 157.214844 169.023438 C 155.085938 169.113281 153.386719 170.863281 153.386719 173.015625 C 153.386719 175.21875 155.175781 177.007812 157.382812 177.007812 C 159.589844 177.007812 161.375 175.21875 161.375 173.015625 C 161.375 172.394531 161.234375 171.808594 160.984375 171.285156 L 187.492188 113.882812 L 196.640625 133.6875 C 196.269531 134.292969 196.058594 135.003906 196.058594 135.761719 C 196.058594 137.96875 197.84375 139.757812 200.050781 139.757812 C 202.257812 139.757812 204.042969 137.96875 204.042969 135.761719 C 204.042969 133.738281 202.535156 132.066406 200.582031 131.804688 Z M 239.691406 219.824219 C 239.273438 220.257812 238.703125 220.492188 238.125 220.492188 C 237.835938 220.492188 237.546875 220.433594 237.273438 220.316406 L 223.816406 214.617188 C 223.179688 215.046875 222.414062 215.296875 221.589844 215.296875 C 219.382812 215.296875 217.59375 213.507812 217.59375 211.304688 C 217.59375 209.097656 219.382812 207.308594 221.589844 207.308594 C 223.554688 207.308594 225.183594 208.726562 225.519531 210.597656 L 233.773438 214.089844 L 212.226562 167.441406 C 210.296875 167.160156 208.8125 165.496094 208.8125 163.488281 C 208.8125 161.28125 210.601562 159.496094 212.808594 159.496094 C 215.015625 159.496094 216.800781 161.28125 216.800781 163.488281 C 216.800781 164.269531 216.578125 164.992188 216.191406 165.609375 L 240.105469 217.390625 C 240.484375 218.210938 240.320312 219.175781 239.691406 219.824219 " fill-opacity="1" fill-rule="nonzero"/></g><g fill="#ffffff" fill-opacity="1"><g transform="translate(123.192631, 245.995061)"><g><path d="M 15.734375 -18.140625 C 16.210938 -18.140625 16.742188 -18.023438 17.328125 -17.796875 C 17.847656 -17.585938 18.109375 -17.1875 18.109375 -16.59375 L 18.109375 -0.953125 C 18.109375 -0.222656 17.664062 0.140625 16.78125 0.140625 C 15.882812 0.140625 15.4375 -0.222656 15.4375 -0.953125 L 15.4375 -12.625 L 14.78125 -12.6875 L 13.875 -9.734375 L 11.140625 -0.65625 C 10.972656 -0.125 10.566406 0.128906 9.921875 0.109375 C 9.628906 0.0976562 9.378906 0.0234375 9.171875 -0.109375 C 8.960938 -0.242188 8.816406 -0.441406 8.734375 -0.703125 L 7.109375 -6 C 6.773438 -7.039062 6.441406 -8.101562 6.109375 -9.1875 C 5.773438 -10.269531 5.410156 -11.46875 5.015625 -12.78125 L 4.359375 -12.6875 L 4.359375 -0.953125 C 4.359375 -0.222656 3.910156 0.140625 3.015625 0.140625 C 2.128906 0.140625 1.6875 -0.222656 1.6875 -0.953125 L 1.6875 -16.59375 C 1.6875 -17.164062 1.945312 -17.566406 2.46875 -17.796875 C 3.03125 -18.023438 3.570312 -18.128906 4.09375 -18.109375 C 4.3125 -18.109375 4.539062 -18.078125 4.78125 -18.015625 C 5.03125 -17.960938 5.257812 -17.878906 5.46875 -17.765625 C 5.6875 -17.648438 5.875 -17.503906 6.03125 -17.328125 C 6.195312 -17.160156 6.328125 -16.960938 6.421875 -16.734375 L 9.984375 -4.59375 C 10.242188 -5.476562 10.515625 -6.441406 10.796875 -7.484375 C 11.085938 -8.535156 11.382812 -9.597656 11.6875 -10.671875 C 11.988281 -11.742188 12.285156 -12.804688 12.578125 -13.859375 C 12.878906 -14.910156 13.160156 -15.890625 13.421875 -16.796875 C 13.503906 -17.015625 13.628906 -17.207031 13.796875 -17.375 C 13.960938 -17.539062 14.148438 -17.675781 14.359375 -17.78125 C 14.578125 -17.894531 14.800781 -17.984375 15.03125 -18.046875 C 15.269531 -18.109375 15.503906 -18.140625 15.734375 -18.140625 Z M 15.734375 -18.140625 "/></g></g></g><g fill="#ffffff" fill-opacity="1"><g transform="translate(140.874734, 245.995061)"><g><path d="M 4.109375 -3.625 C 4.109375 -3.269531 4.222656 -2.929688 4.453125 -2.609375 C 4.691406 -2.296875 5.09375 -2.140625 5.65625 -2.140625 L 8.484375 -2.140625 C 9.046875 -2.140625 9.441406 -2.273438 9.671875 -2.546875 C 9.910156 -2.828125 10.03125 -3.148438 10.03125 -3.515625 L 10.03125 -3.765625 C 10.03125 -4.472656 10.445312 -4.828125 11.28125 -4.828125 C 12.113281 -4.828125 12.53125 -4.472656 12.53125 -3.765625 L 12.53125 -3.5 C 12.53125 -2.863281 12.425781 -2.335938 12.21875 -1.921875 C 12.019531 -1.515625 11.71875 -1.160156 11.3125 -0.859375 C 10.507812 -0.285156 9.707031 0 8.90625 0 L 5.078125 0 C 4.273438 0 3.5 -0.285156 2.75 -0.859375 C 2.382812 -1.160156 2.101562 -1.539062 1.90625 -2 C 1.707031 -2.46875 1.609375 -3.003906 1.609375 -3.609375 L 1.609375 -10.078125 C 1.609375 -11.304688 1.988281 -12.210938 2.75 -12.796875 C 3.125 -13.078125 3.507812 -13.296875 3.90625 -13.453125 C 4.3125 -13.609375 4.703125 -13.6875 5.078125 -13.6875 L 8.90625 -13.6875 C 9.257812 -13.6875 9.65625 -13.613281 10.09375 -13.46875 C 10.539062 -13.332031 10.953125 -13.140625 11.328125 -12.890625 C 11.691406 -12.640625 11.984375 -12.285156 12.203125 -11.828125 C 12.421875 -11.367188 12.53125 -10.832031 12.53125 -10.21875 L 12.53125 -7.15625 C 12.53125 -6.800781 12.425781 -6.488281 12.21875 -6.21875 C 12.019531 -5.945312 11.648438 -5.8125 11.109375 -5.8125 L 6.203125 -5.8125 C 5.648438 -5.8125 5.359375 -6.164062 5.328125 -6.875 C 5.328125 -7.59375 5.617188 -7.953125 6.203125 -7.953125 L 10.0625 -7.953125 L 10.03125 -10.0625 C 10.03125 -10.4375 9.910156 -10.78125 9.671875 -11.09375 C 9.441406 -11.40625 9.046875 -11.5625 8.484375 -11.5625 L 5.65625 -11.5625 C 5.09375 -11.5625 4.691406 -11.40625 4.453125 -11.09375 C 4.222656 -10.78125 4.109375 -10.4375 4.109375 -10.0625 Z M 4.109375 -3.625 "/></g></g></g><g fill="#ffffff" fill-opacity="1"><g transform="translate(152.859351, 245.995061)"><g><path d="M 10.03125 -11.53125 L 5.65625 -11.53125 C 5.03125 -11.53125 4.617188 -11.347656 4.421875 -10.984375 C 4.210938 -10.671875 4.109375 -10.300781 4.109375 -9.875 L 4.109375 -3.34375 C 4.109375 -2.945312 4.226562 -2.644531 4.46875 -2.4375 C 4.707031 -2.238281 5.109375 -2.140625 5.671875 -2.140625 L 8.015625 -2.140625 C 8.554688 -2.140625 8.828125 -1.78125 8.828125 -1.0625 C 8.828125 -0.757812 8.765625 -0.503906 8.640625 -0.296875 C 8.515625 -0.0976562 8.304688 0 8.015625 0 L 5.265625 0 C 4.316406 0 3.46875 -0.238281 2.71875 -0.71875 C 1.976562 -1.175781 1.609375 -2.039062 1.609375 -3.3125 L 1.609375 -10.078125 C 1.609375 -10.703125 1.707031 -11.238281 1.90625 -11.6875 C 2.101562 -12.144531 2.414062 -12.515625 2.84375 -12.796875 C 3.644531 -13.378906 4.445312 -13.671875 5.25 -13.671875 L 10.03125 -13.671875 L 10.03125 -17.078125 C 10.03125 -17.796875 10.445312 -18.15625 11.28125 -18.15625 C 12.113281 -18.15625 12.53125 -17.796875 12.53125 -17.078125 L 12.53125 -0.953125 C 12.53125 -0.222656 12.113281 0.140625 11.28125 0.140625 C 10.96875 0.140625 10.679688 0.0820312 10.421875 -0.03125 C 10.160156 -0.144531 10.03125 -0.398438 10.03125 -0.796875 Z M 10.03125 -11.53125 "/></g></g></g><g fill="#ffffff" fill-opacity="1"><g transform="translate(164.957457, 245.995061)"><g><path d="M 4.171875 -0.953125 C 4.171875 -0.222656 3.753906 0.140625 2.921875 0.140625 C 2.078125 0.140625 1.65625 -0.222656 1.65625 -0.953125 L 1.65625 -12.671875 C 1.65625 -13.398438 2.078125 -13.765625 2.921875 -13.765625 C 3.753906 -13.765625 4.171875 -13.398438 4.171875 -12.671875 Z M 4.65625 -16.625 C 4.65625 -16.132812 4.488281 -15.722656 4.15625 -15.390625 C 3.820312 -15.054688 3.410156 -14.890625 2.921875 -14.890625 C 2.441406 -14.890625 2.03125 -15.054688 1.6875 -15.390625 C 1.351562 -15.722656 1.1875 -16.132812 1.1875 -16.625 C 1.1875 -17.125 1.351562 -17.535156 1.6875 -17.859375 C 2.03125 -18.191406 2.441406 -18.359375 2.921875 -18.359375 C 3.410156 -18.359375 3.820312 -18.191406 4.15625 -17.859375 C 4.488281 -17.535156 4.65625 -17.125 4.65625 -16.625 Z M 4.65625 -16.625 "/></g></g></g><g fill="#ffffff" fill-opacity="1"><g transform="translate(168.861163, 245.995061)"><g><path d="M 12.53125 -3.609375 C 12.53125 -2.367188 12.125 -1.453125 11.3125 -0.859375 C 10.507812 -0.285156 9.707031 0 8.90625 0 L 5.078125 0 C 4.273438 0 3.5 -0.285156 2.75 -0.859375 C 2.382812 -1.160156 2.101562 -1.539062 1.90625 -2 C 1.707031 -2.46875 1.609375 -3.003906 1.609375 -3.609375 L 1.609375 -10.078125 C 1.609375 -11.304688 1.988281 -12.210938 2.75 -12.796875 C 3.125 -13.078125 3.507812 -13.296875 3.90625 -13.453125 C 4.3125 -13.609375 4.703125 -13.6875 5.078125 -13.6875 L 8.90625 -13.6875 C 9.257812 -13.6875 9.65625 -13.613281 10.09375 -13.46875 C 10.539062 -13.332031 10.953125 -13.140625 11.328125 -12.890625 C 11.691406 -12.640625 11.984375 -12.285156 12.203125 -11.828125 C 12.421875 -11.367188 12.53125 -10.832031 12.53125 -10.21875 L 12.53125 -9.078125 C 12.53125 -8.347656 12.113281 -7.984375 11.28125 -7.984375 C 10.445312 -7.984375 10.03125 -8.347656 10.03125 -9.078125 L 10.03125 -10.0625 C 10.03125 -10.4375 9.910156 -10.78125 9.671875 -11.09375 C 9.441406 -11.40625 9.046875 -11.5625 8.484375 -11.5625 L 5.65625 -11.5625 C 5.09375 -11.5625 4.691406 -11.40625 4.453125 -11.09375 C 4.222656 -10.78125 4.109375 -10.4375 4.109375 -10.0625 L 4.109375 -3.625 C 4.109375 -3.269531 4.222656 -2.929688 4.453125 -2.609375 C 4.691406 -2.296875 5.09375 -2.140625 5.65625 -2.140625 L 8.484375 -2.140625 C 9.046875 -2.140625 9.441406 -2.296875 9.671875 -2.609375 C 9.910156 -2.929688 10.03125 -3.269531 10.03125 -3.625 L 10.03125 -4.671875 C 10.03125 -5.390625 10.445312 -5.75 11.28125 -5.75 C 12.113281 -5.75 12.53125 -5.390625 12.53125 -4.671875 Z M 12.53125 -3.609375 "/></g></g></g><g fill="#ffffff" fill-opacity="1"><g transform="translate(180.800382, 245.995061)"><g><path d="M 10.421875 -10.375 C 10.816406 -10.375 11.222656 -10.289062 11.640625 -10.125 C 12.066406 -9.957031 12.476562 -9.738281 12.875 -9.46875 L 12.84375 -9.46875 C 13.238281 -9.195312 13.539062 -8.828125 13.75 -8.359375 C 13.96875 -7.890625 14.078125 -7.351562 14.078125 -6.75 L 14.078125 -3.625 C 14.078125 -2.40625 13.664062 -1.492188 12.84375 -0.890625 C 12.457031 -0.597656 12.054688 -0.375 11.640625 -0.21875 C 11.222656 -0.0625 10.816406 0.015625 10.421875 0.015625 L 5.46875 0.015625 C 5.070312 0.015625 4.664062 -0.0625 4.25 -0.21875 C 3.832031 -0.375 3.429688 -0.597656 3.046875 -0.890625 C 2.222656 -1.492188 1.8125 -2.40625 1.8125 -3.625 L 1.8125 -5.125 C 1.8125 -5.84375 2.257812 -6.203125 3.15625 -6.203125 C 4.0625 -6.203125 4.515625 -5.84375 4.515625 -5.125 L 4.515625 -3.8125 C 4.515625 -3.414062 4.628906 -3.054688 4.859375 -2.734375 C 5.085938 -2.421875 5.476562 -2.265625 6.03125 -2.265625 L 9.859375 -2.265625 C 10.410156 -2.265625 10.800781 -2.421875 11.03125 -2.734375 C 11.257812 -3.054688 11.375 -3.414062 11.375 -3.8125 L 11.375 -6.5625 C 11.375 -6.9375 11.257812 -7.285156 11.03125 -7.609375 C 10.800781 -7.941406 10.410156 -8.109375 9.859375 -8.109375 L 5.46875 -8.109375 C 4.6875 -8.109375 3.878906 -8.394531 3.046875 -8.96875 C 2.222656 -9.601562 1.8125 -10.519531 1.8125 -11.71875 L 1.8125 -14.421875 C 1.8125 -15.023438 1.914062 -15.554688 2.125 -16.015625 C 2.34375 -16.472656 2.648438 -16.847656 3.046875 -17.140625 L 3.015625 -17.140625 C 3.410156 -17.398438 3.816406 -17.613281 4.234375 -17.78125 C 4.660156 -17.945312 5.070312 -18.03125 5.46875 -18.03125 L 10.421875 -18.03125 C 10.816406 -18.03125 11.222656 -17.945312 11.640625 -17.78125 C 12.066406 -17.613281 12.476562 -17.398438 12.875 -17.140625 L 12.84375 -17.140625 C 13.238281 -16.847656 13.539062 -16.472656 13.75 -16.015625 C 13.96875 -15.554688 14.078125 -15.023438 14.078125 -14.421875 L 14.078125 -13.078125 C 14.078125 -12.367188 13.625 -12.015625 12.71875 -12.015625 C 11.820312 -12.015625 11.375 -12.367188 11.375 -13.078125 L 11.375 -14.21875 C 11.375 -14.59375 11.257812 -14.9375 11.03125 -15.25 C 10.800781 -15.570312 10.410156 -15.734375 9.859375 -15.734375 L 6.03125 -15.734375 C 5.476562 -15.734375 5.085938 -15.570312 4.859375 -15.25 C 4.628906 -14.9375 4.515625 -14.59375 4.515625 -14.21875 L 4.515625 -11.890625 C 4.515625 -11.503906 4.628906 -11.15625 4.859375 -10.84375 C 5.085938 -10.53125 5.476562 -10.375 6.03125 -10.375 Z M 10.421875 -10.375 "/></g></g></g><g fill="#ffffff" fill-opacity="1"><g transform="translate(194.805226, 245.995061)"><g><path d="M 4.109375 -3.625 C 4.109375 -3.269531 4.222656 -2.929688 4.453125 -2.609375 C 4.691406 -2.296875 5.09375 -2.140625 5.65625 -2.140625 L 8.484375 -2.140625 C 9.046875 -2.140625 9.441406 -2.273438 9.671875 -2.546875 C 9.910156 -2.828125 10.03125 -3.148438 10.03125 -3.515625 L 10.03125 -3.765625 C 10.03125 -4.472656 10.445312 -4.828125 11.28125 -4.828125 C 12.113281 -4.828125 12.53125 -4.472656 12.53125 -3.765625 L 12.53125 -3.5 C 12.53125 -2.863281 12.425781 -2.335938 12.21875 -1.921875 C 12.019531 -1.515625 11.71875 -1.160156 11.3125 -0.859375 C 10.507812 -0.285156 9.707031 0 8.90625 0 L 5.078125 0 C 4.273438 0 3.5 -0.285156 2.75 -0.859375 C 2.382812 -1.160156 2.101562 -1.539062 1.90625 -2 C 1.707031 -2.46875 1.609375 -3.003906 1.609375 -3.609375 L 1.609375 -10.078125 C 1.609375 -11.304688 1.988281 -12.210938 2.75 -12.796875 C 3.125 -13.078125 3.507812 -13.296875 3.90625 -13.453125 C 4.3125 -13.609375 4.703125 -13.6875 5.078125 -13.6875 L 8.90625 -13.6875 C 9.257812 -13.6875 9.65625 -13.613281 10.09375 -13.46875 C 10.539062 -13.332031 10.953125 -13.140625 11.328125 -12.890625 C 11.691406 -12.640625 11.984375 -12.285156 12.203125 -11.828125 C 12.421875 -11.367188 12.53125 -10.832031 12.53125 -10.21875 L 12.53125 -7.15625 C 12.53125 -6.800781 12.425781 -6.488281 12.21875 -6.21875 C 12.019531 -5.945312 11.648438 -5.8125 11.109375 -5.8125 L 6.203125 -5.8125 C 5.648438 -5.8125 5.359375 -6.164062 5.328125 -6.875 C 5.328125 -7.59375 5.617188 -7.953125 6.203125 -7.953125 L 10.0625 -7.953125 L 10.03125 -10.0625 C 10.03125 -10.4375 9.910156 -10.78125 9.671875 -11.09375 C 9.441406 -11.40625 9.046875 -11.5625 8.484375 -11.5625 L 5.65625 -11.5625 C 5.09375 -11.5625 4.691406 -11.40625 4.453125 -11.09375 C 4.222656 -10.78125 4.109375 -10.4375 4.109375 -10.0625 Z M 4.109375 -3.625 "/></g></g></g><g fill="#ffffff" fill-opacity="1"><g transform="translate(206.789844, 245.995061)"><g><path d="M 5.046875 0 C 4.578125 0 4.128906 -0.0625 3.703125 -0.1875 C 3.273438 -0.320312 2.863281 -0.507812 2.46875 -0.75 L 2.46875 -0.71875 C 1.726562 -1.195312 1.359375 -2.0625 1.359375 -3.3125 L 1.359375 -4.421875 C 1.359375 -5.046875 1.46875 -5.585938 1.6875 -6.046875 C 1.90625 -6.515625 2.210938 -6.882812 2.609375 -7.15625 L 2.59375 -7.15625 C 2.96875 -7.40625 3.363281 -7.59375 3.78125 -7.71875 C 4.207031 -7.851562 4.617188 -7.921875 5.015625 -7.921875 L 10.03125 -7.921875 L 10.03125 -10.03125 C 10.03125 -10.414062 9.910156 -10.757812 9.671875 -11.0625 C 9.441406 -11.375 9.046875 -11.53125 8.484375 -11.53125 L 5.828125 -11.53125 C 5.253906 -11.53125 4.859375 -11.390625 4.640625 -11.109375 C 4.421875 -10.828125 4.3125 -10.5 4.3125 -10.125 L 4.3125 -9.9375 C 4.3125 -9.15625 3.890625 -8.765625 3.046875 -8.765625 C 2.191406 -8.765625 1.765625 -9.15625 1.765625 -9.9375 L 1.765625 -10.140625 C 1.765625 -10.765625 1.875 -11.285156 2.09375 -11.703125 C 2.3125 -12.128906 2.613281 -12.488281 3 -12.78125 L 2.96875 -12.78125 C 3.363281 -13.039062 3.773438 -13.253906 4.203125 -13.421875 C 4.640625 -13.585938 5.054688 -13.671875 5.453125 -13.671875 L 8.90625 -13.671875 C 9.28125 -13.671875 9.679688 -13.585938 10.109375 -13.421875 C 10.546875 -13.253906 10.953125 -13.039062 11.328125 -12.78125 L 11.3125 -12.78125 C 11.695312 -12.488281 11.992188 -12.113281 12.203125 -11.65625 C 12.421875 -11.195312 12.53125 -10.664062 12.53125 -10.0625 L 12.53125 -0.953125 C 12.53125 -0.222656 12.113281 0.140625 11.28125 0.140625 C 11.113281 0.140625 10.957031 0.128906 10.8125 0.109375 C 10.675781 0.0976562 10.550781 0.0625 10.4375 0 C 10.320312 -0.0703125 10.226562 -0.171875 10.15625 -0.296875 C 10.09375 -0.429688 10.0625 -0.601562 10.0625 -0.8125 L 10.03125 -5.796875 L 5.453125 -5.796875 C 5.117188 -5.796875 4.859375 -5.753906 4.671875 -5.671875 C 4.492188 -5.597656 4.351562 -5.476562 4.25 -5.3125 C 4.125 -5.050781 4.035156 -4.847656 3.984375 -4.703125 C 3.929688 -4.566406 3.90625 -4.40625 3.90625 -4.21875 L 3.90625 -3.34375 C 3.90625 -2.945312 4.019531 -2.644531 4.25 -2.4375 C 4.488281 -2.238281 4.894531 -2.140625 5.46875 -2.140625 L 8.015625 -2.140625 C 8.578125 -2.140625 8.859375 -1.78125 8.859375 -1.0625 C 8.859375 -0.757812 8.789062 -0.503906 8.65625 -0.296875 C 8.519531 -0.0976562 8.304688 0 8.015625 0 Z M 5.046875 0 "/></g></g></g><g fill="#ffffff" fill-opacity="1"><g transform="translate(218.81985, 245.995061)"><g><path d="M 4.0625 -0.953125 C 4.0625 -0.222656 3.644531 0.140625 2.8125 0.140625 C 1.945312 0.140625 1.515625 -0.222656 1.515625 -0.953125 L 1.515625 -10.359375 C 1.515625 -11.597656 1.890625 -12.457031 2.640625 -12.9375 C 3.378906 -13.425781 4.234375 -13.671875 5.203125 -13.671875 L 7.78125 -13.671875 C 8.34375 -13.671875 8.625 -13.3125 8.625 -12.59375 C 8.65625 -11.882812 8.375 -11.53125 7.78125 -11.53125 L 5.375 -11.53125 C 4.832031 -11.53125 4.476562 -11.421875 4.3125 -11.203125 C 4.144531 -10.992188 4.0625 -10.703125 4.0625 -10.328125 Z M 4.0625 -0.953125 "/></g></g></g><g fill="#ffffff" fill-opacity="1"><g transform="translate(225.946835, 245.995061)"><g><path d="M 12.53125 -3.609375 C 12.53125 -2.367188 12.125 -1.453125 11.3125 -0.859375 C 10.507812 -0.285156 9.707031 0 8.90625 0 L 5.078125 0 C 4.273438 0 3.5 -0.285156 2.75 -0.859375 C 2.382812 -1.160156 2.101562 -1.539062 1.90625 -2 C 1.707031 -2.46875 1.609375 -3.003906 1.609375 -3.609375 L 1.609375 -10.078125 C 1.609375 -11.304688 1.988281 -12.210938 2.75 -12.796875 C 3.125 -13.078125 3.507812 -13.296875 3.90625 -13.453125 C 4.3125 -13.609375 4.703125 -13.6875 5.078125 -13.6875 L 8.90625 -13.6875 C 9.257812 -13.6875 9.65625 -13.613281 10.09375 -13.46875 C 10.539062 -13.332031 10.953125 -13.140625 11.328125 -12.890625 C 11.691406 -12.640625 11.984375 -12.285156 12.203125 -11.828125 C 12.421875 -11.367188 12.53125 -10.832031 12.53125 -10.21875 L 12.53125 -9.078125 C 12.53125 -8.347656 12.113281 -7.984375 11.28125 -7.984375 C 10.445312 -7.984375 10.03125 -8.347656 10.03125 -9.078125 L 10.03125 -10.0625 C 10.03125 -10.4375 9.910156 -10.78125 9.671875 -11.09375 C 9.441406 -11.40625 9.046875 -11.5625 8.484375 -11.5625 L 5.65625 -11.5625 C 5.09375 -11.5625 4.691406 -11.40625 4.453125 -11.09375 C 4.222656 -10.78125 4.109375 -10.4375 4.109375 -10.0625 L 4.109375 -3.625 C 4.109375 -3.269531 4.222656 -2.929688 4.453125 -2.609375 C 4.691406 -2.296875 5.09375 -2.140625 5.65625 -2.140625 L 8.484375 -2.140625 C 9.046875 -2.140625 9.441406 -2.296875 9.671875 -2.609375 C 9.910156 -2.929688 10.03125 -3.269531 10.03125 -3.625 L 10.03125 -4.671875 C 10.03125 -5.390625 10.445312 -5.75 11.28125 -5.75 C 12.113281 -5.75 12.53125 -5.390625 12.53125 -4.671875 Z M 12.53125 -3.609375 "/></g></g></g><g fill="#ffffff" fill-opacity="1"><g transform="translate(237.886054, 245.995061)"><g><path d="M 4.109375 -0.953125 C 4.109375 -0.222656 3.691406 0.140625 2.859375 0.140625 C 2.023438 0.140625 1.609375 -0.222656 1.609375 -0.953125 L 1.609375 -17.078125 C 1.609375 -17.796875 2.023438 -18.15625 2.859375 -18.15625 C 3.691406 -18.15625 4.109375 -17.796875 4.109375 -17.078125 L 4.109375 -13.671875 L 8.90625 -13.671875 C 9.675781 -13.671875 10.476562 -13.378906 11.3125 -12.796875 C 12.125 -12.222656 12.53125 -11.316406 12.53125 -10.078125 L 12.53125 -0.953125 C 12.53125 -0.222656 12.113281 0.140625 11.28125 0.140625 C 10.445312 0.140625 10.03125 -0.222656 10.03125 -0.953125 L 10.03125 -9.875 C 10.03125 -10.269531 9.910156 -10.648438 9.671875 -11.015625 L 9.6875 -10.984375 C 9.5 -11.347656 9.097656 -11.53125 8.484375 -11.53125 L 4.109375 -11.53125 Z M 4.109375 -0.953125 "/></g></g></g><g clip-path="url(#30d6ac9a4e)"><g clip-path="url(#c68596c9ae)"><g clip-path="url(#2e7fdaeb47)"><path fill="#000000" d="M 178.882812 150.53125 L 190.019531 148.695312 L 196.117188 185.671875 L 184.980469 187.507812 Z M 178.882812 150.53125 " fill-opacity="1" fill-rule="nonzero"/></g></g></g><g clip-path="url(#ec1708d177)"><g clip-path="url(#47e9026876)"><g clip-path="url(#6124265a9c)"><path fill="#000000" d="M 204.652344 158.691406 L 206.996094 169.730469 L 170.335938 177.507812 L 167.992188 166.46875 Z M 204.652344 158.691406 " fill-opacity="1" fill-rule="nonzero"/></g></g></g></svg>