<svg xmlns="http://www.w3.org/2000/svg" xmlns:xlink="http://www.w3.org/1999/xlink" width="500" zoomAndPan="magnify" viewBox="0 0 375 374.999991" height="500" preserveAspectRatio="xMidYMid meet" version="1.0"><defs><g/></defs><g fill="#ffffff" fill-opacity="1"><g transform="translate(122.892596, 195.034975)"><g><path d="M 15.8125 -18.234375 C 16.300781 -18.234375 16.832031 -18.117188 17.40625 -17.890625 C 17.9375 -17.671875 18.203125 -17.265625 18.203125 -16.671875 L 18.203125 -0.953125 C 18.203125 -0.222656 17.753906 0.140625 16.859375 0.140625 C 15.960938 0.140625 15.515625 -0.222656 15.515625 -0.953125 L 15.515625 -12.6875 L 14.84375 -12.75 L 13.9375 -9.78125 L 11.203125 -0.65625 C 11.035156 -0.125 10.625 0.128906 9.96875 0.109375 C 9.675781 0.0976562 9.421875 0.0234375 9.203125 -0.109375 C 8.992188 -0.242188 8.851562 -0.441406 8.78125 -0.703125 L 7.140625 -6.015625 C 6.804688 -7.066406 6.472656 -8.132812 6.140625 -9.21875 C 5.804688 -10.3125 5.441406 -11.519531 5.046875 -12.84375 L 4.375 -12.75 L 4.375 -0.953125 C 4.375 -0.222656 3.925781 0.140625 3.03125 0.140625 C 2.132812 0.140625 1.6875 -0.222656 1.6875 -0.953125 L 1.6875 -16.671875 C 1.6875 -17.253906 1.953125 -17.660156 2.484375 -17.890625 C 3.046875 -18.117188 3.585938 -18.222656 4.109375 -18.203125 C 4.335938 -18.203125 4.570312 -18.171875 4.8125 -18.109375 C 5.050781 -18.046875 5.273438 -17.957031 5.484375 -17.84375 C 5.703125 -17.738281 5.894531 -17.597656 6.0625 -17.421875 C 6.226562 -17.242188 6.359375 -17.039062 6.453125 -16.8125 L 10.03125 -4.609375 C 10.289062 -5.503906 10.566406 -6.476562 10.859375 -7.53125 C 11.148438 -8.582031 11.445312 -9.644531 11.75 -10.71875 C 12.050781 -11.800781 12.347656 -12.867188 12.640625 -13.921875 C 12.941406 -14.984375 13.222656 -15.96875 13.484375 -16.875 C 13.578125 -17.09375 13.707031 -17.285156 13.875 -17.453125 C 14.039062 -17.617188 14.226562 -17.757812 14.4375 -17.875 C 14.65625 -17.988281 14.878906 -18.078125 15.109375 -18.140625 C 15.347656 -18.203125 15.582031 -18.234375 15.8125 -18.234375 Z M 15.8125 -18.234375 "/></g></g></g><g fill="#ffffff" fill-opacity="1"><g transform="translate(140.657196, 195.034975)"><g><path d="M 4.125 -3.65625 C 4.125 -3.289062 4.242188 -2.945312 4.484375 -2.625 C 4.722656 -2.300781 5.125 -2.140625 5.6875 -2.140625 L 8.53125 -2.140625 C 9.09375 -2.140625 9.488281 -2.28125 9.71875 -2.5625 C 9.957031 -2.84375 10.078125 -3.164062 10.078125 -3.53125 L 10.078125 -3.78125 C 10.078125 -4.5 10.5 -4.859375 11.34375 -4.859375 C 12.175781 -4.859375 12.59375 -4.5 12.59375 -3.78125 L 12.59375 -3.515625 C 12.59375 -2.878906 12.488281 -2.351562 12.28125 -1.9375 C 12.082031 -1.53125 11.773438 -1.171875 11.359375 -0.859375 C 10.554688 -0.285156 9.75 0 8.9375 0 L 5.109375 0 C 4.304688 0 3.523438 -0.285156 2.765625 -0.859375 C 2.398438 -1.171875 2.117188 -1.554688 1.921875 -2.015625 C 1.722656 -2.484375 1.625 -3.019531 1.625 -3.625 L 1.625 -10.125 C 1.625 -11.363281 2.003906 -12.273438 2.765625 -12.859375 C 3.140625 -13.140625 3.53125 -13.359375 3.9375 -13.515625 C 4.34375 -13.671875 4.734375 -13.75 5.109375 -13.75 L 8.9375 -13.75 C 9.300781 -13.75 9.703125 -13.675781 10.140625 -13.53125 C 10.585938 -13.394531 11.003906 -13.203125 11.390625 -12.953125 C 11.753906 -12.691406 12.046875 -12.332031 12.265625 -11.875 C 12.484375 -11.425781 12.59375 -10.890625 12.59375 -10.265625 L 12.59375 -7.1875 C 12.59375 -6.832031 12.488281 -6.519531 12.28125 -6.25 C 12.082031 -5.976562 11.707031 -5.84375 11.15625 -5.84375 L 6.234375 -5.84375 C 5.679688 -5.84375 5.390625 -6.195312 5.359375 -6.90625 C 5.359375 -7.625 5.648438 -7.984375 6.234375 -7.984375 L 10.109375 -7.984375 L 10.078125 -10.109375 C 10.078125 -10.484375 9.957031 -10.828125 9.71875 -11.140625 C 9.488281 -11.453125 9.09375 -11.609375 8.53125 -11.609375 L 5.6875 -11.609375 C 5.125 -11.609375 4.722656 -11.453125 4.484375 -11.140625 C 4.242188 -10.828125 4.125 -10.484375 4.125 -10.109375 Z M 4.125 -3.65625 "/></g></g></g><g fill="#ffffff" fill-opacity="1"><g transform="translate(152.697727, 195.034975)"><g><path d="M 10.078125 -11.59375 L 5.6875 -11.59375 C 5.0625 -11.59375 4.648438 -11.410156 4.453125 -11.046875 C 4.234375 -10.722656 4.125 -10.347656 4.125 -9.921875 L 4.125 -3.359375 C 4.125 -2.960938 4.242188 -2.660156 4.484375 -2.453125 C 4.734375 -2.242188 5.140625 -2.140625 5.703125 -2.140625 L 8.046875 -2.140625 C 8.597656 -2.140625 8.875 -1.785156 8.875 -1.078125 C 8.875 -0.765625 8.804688 -0.503906 8.671875 -0.296875 C 8.546875 -0.0976562 8.335938 0 8.046875 0 L 5.296875 0 C 4.335938 0 3.484375 -0.242188 2.734375 -0.734375 C 1.992188 -1.191406 1.625 -2.054688 1.625 -3.328125 L 1.625 -10.125 C 1.625 -10.75 1.722656 -11.289062 1.921875 -11.75 C 2.117188 -12.207031 2.429688 -12.578125 2.859375 -12.859375 C 3.660156 -13.441406 4.460938 -13.734375 5.265625 -13.734375 L 10.078125 -13.734375 L 10.078125 -17.15625 C 10.078125 -17.882812 10.5 -18.25 11.34375 -18.25 C 12.175781 -18.25 12.59375 -17.882812 12.59375 -17.15625 L 12.59375 -0.953125 C 12.59375 -0.222656 12.175781 0.140625 11.34375 0.140625 C 11.019531 0.140625 10.726562 0.0820312 10.46875 -0.03125 C 10.207031 -0.144531 10.078125 -0.398438 10.078125 -0.796875 Z M 10.078125 -11.59375 "/></g></g></g><g fill="#ffffff" fill-opacity="1"><g transform="translate(164.852278, 195.034975)"><g><path d="M 4.203125 -0.953125 C 4.203125 -0.222656 3.78125 0.140625 2.9375 0.140625 C 2.09375 0.140625 1.671875 -0.222656 1.671875 -0.953125 L 1.671875 -12.734375 C 1.671875 -13.460938 2.09375 -13.828125 2.9375 -13.828125 C 3.78125 -13.828125 4.203125 -13.460938 4.203125 -12.734375 Z M 4.671875 -16.703125 C 4.671875 -16.210938 4.503906 -15.800781 4.171875 -15.46875 C 3.835938 -15.132812 3.425781 -14.96875 2.9375 -14.96875 C 2.457031 -14.96875 2.046875 -15.132812 1.703125 -15.46875 C 1.359375 -15.800781 1.1875 -16.210938 1.1875 -16.703125 C 1.1875 -17.203125 1.359375 -17.617188 1.703125 -17.953125 C 2.046875 -18.285156 2.457031 -18.453125 2.9375 -18.453125 C 3.425781 -18.453125 3.835938 -18.285156 4.171875 -17.953125 C 4.503906 -17.617188 4.671875 -17.203125 4.671875 -16.703125 Z M 4.671875 -16.703125 "/></g></g></g><g fill="#ffffff" fill-opacity="1"><g transform="translate(168.774196, 195.034975)"><g><path d="M 12.59375 -3.625 C 12.59375 -2.375 12.179688 -1.453125 11.359375 -0.859375 C 10.554688 -0.285156 9.75 0 8.9375 0 L 5.109375 0 C 4.304688 0 3.523438 -0.285156 2.765625 -0.859375 C 2.398438 -1.171875 2.117188 -1.554688 1.921875 -2.015625 C 1.722656 -2.484375 1.625 -3.019531 1.625 -3.625 L 1.625 -10.125 C 1.625 -11.363281 2.003906 -12.273438 2.765625 -12.859375 C 3.140625 -13.140625 3.53125 -13.359375 3.9375 -13.515625 C 4.34375 -13.671875 4.734375 -13.75 5.109375 -13.75 L 8.9375 -13.75 C 9.300781 -13.75 9.703125 -13.675781 10.140625 -13.53125 C 10.585938 -13.394531 11.003906 -13.203125 11.390625 -12.953125 C 11.753906 -12.691406 12.046875 -12.332031 12.265625 -11.875 C 12.484375 -11.425781 12.59375 -10.890625 12.59375 -10.265625 L 12.59375 -9.125 C 12.59375 -8.394531 12.175781 -8.03125 11.34375 -8.03125 C 10.5 -8.03125 10.078125 -8.394531 10.078125 -9.125 L 10.078125 -10.109375 C 10.078125 -10.484375 9.957031 -10.828125 9.71875 -11.140625 C 9.488281 -11.453125 9.09375 -11.609375 8.53125 -11.609375 L 5.6875 -11.609375 C 5.125 -11.609375 4.722656 -11.453125 4.484375 -11.140625 C 4.242188 -10.828125 4.125 -10.484375 4.125 -10.109375 L 4.125 -3.65625 C 4.125 -3.289062 4.242188 -2.945312 4.484375 -2.625 C 4.722656 -2.300781 5.125 -2.140625 5.6875 -2.140625 L 8.53125 -2.140625 C 9.09375 -2.140625 9.488281 -2.300781 9.71875 -2.625 C 9.957031 -2.945312 10.078125 -3.289062 10.078125 -3.65625 L 10.078125 -4.703125 C 10.078125 -5.410156 10.5 -5.765625 11.34375 -5.765625 C 12.175781 -5.765625 12.59375 -5.410156 12.59375 -4.703125 Z M 12.59375 -3.625 "/></g></g></g><g fill="#ffffff" fill-opacity="1"><g transform="translate(180.769119, 195.034975)"><g><path d="M 10.46875 -10.421875 C 10.863281 -10.421875 11.273438 -10.335938 11.703125 -10.171875 C 12.128906 -10.003906 12.539062 -9.785156 12.9375 -9.515625 L 12.90625 -9.515625 C 13.300781 -9.242188 13.601562 -8.867188 13.8125 -8.390625 C 14.03125 -7.921875 14.140625 -7.382812 14.140625 -6.78125 L 14.140625 -3.65625 C 14.140625 -2.414062 13.726562 -1.492188 12.90625 -0.890625 C 12.507812 -0.597656 12.101562 -0.375 11.6875 -0.21875 C 11.269531 -0.0625 10.863281 0.015625 10.46875 0.015625 L 5.5 0.015625 C 5.101562 0.015625 4.695312 -0.0625 4.28125 -0.21875 C 3.863281 -0.375 3.457031 -0.597656 3.0625 -0.890625 C 2.238281 -1.492188 1.828125 -2.414062 1.828125 -3.65625 L 1.828125 -5.15625 C 1.828125 -5.875 2.273438 -6.234375 3.171875 -6.234375 C 4.085938 -6.234375 4.546875 -5.875 4.546875 -5.15625 L 4.546875 -3.828125 C 4.546875 -3.429688 4.65625 -3.070312 4.875 -2.75 C 5.101562 -2.4375 5.5 -2.28125 6.0625 -2.28125 L 9.90625 -2.28125 C 10.46875 -2.28125 10.859375 -2.4375 11.078125 -2.75 C 11.304688 -3.070312 11.421875 -3.429688 11.421875 -3.828125 L 11.421875 -6.59375 C 11.421875 -6.96875 11.304688 -7.316406 11.078125 -7.640625 C 10.859375 -7.972656 10.46875 -8.140625 9.90625 -8.140625 L 5.5 -8.140625 C 4.707031 -8.140625 3.894531 -8.429688 3.0625 -9.015625 C 2.238281 -9.648438 1.828125 -10.566406 1.828125 -11.765625 L 1.828125 -14.484375 C 1.828125 -15.097656 1.929688 -15.632812 2.140625 -16.09375 C 2.359375 -16.5625 2.664062 -16.9375 3.0625 -17.21875 L 3.03125 -17.21875 C 3.425781 -17.476562 3.835938 -17.691406 4.265625 -17.859375 C 4.691406 -18.023438 5.101562 -18.109375 5.5 -18.109375 L 10.46875 -18.109375 C 10.863281 -18.109375 11.273438 -18.023438 11.703125 -17.859375 C 12.128906 -17.691406 12.539062 -17.476562 12.9375 -17.21875 L 12.90625 -17.21875 C 13.300781 -16.9375 13.601562 -16.5625 13.8125 -16.09375 C 14.03125 -15.632812 14.140625 -15.097656 14.140625 -14.484375 L 14.140625 -13.140625 C 14.140625 -12.421875 13.6875 -12.0625 12.78125 -12.0625 C 11.875 -12.0625 11.421875 -12.421875 11.421875 -13.140625 L 11.421875 -14.28125 C 11.421875 -14.65625 11.304688 -15.003906 11.078125 -15.328125 C 10.859375 -15.648438 10.46875 -15.8125 9.90625 -15.8125 L 6.0625 -15.8125 C 5.5 -15.8125 5.101562 -15.648438 4.875 -15.328125 C 4.65625 -15.003906 4.546875 -14.65625 4.546875 -14.28125 L 4.546875 -11.953125 C 4.546875 -11.554688 4.65625 -11.203125 4.875 -10.890625 C 5.101562 -10.578125 5.5 -10.421875 6.0625 -10.421875 Z M 10.46875 -10.421875 "/></g></g></g><g fill="#ffffff" fill-opacity="1"><g transform="translate(194.839302, 195.034975)"><g><path d="M 4.125 -3.65625 C 4.125 -3.289062 4.242188 -2.945312 4.484375 -2.625 C 4.722656 -2.300781 5.125 -2.140625 5.6875 -2.140625 L 8.53125 -2.140625 C 9.09375 -2.140625 9.488281 -2.28125 9.71875 -2.5625 C 9.957031 -2.84375 10.078125 -3.164062 10.078125 -3.53125 L 10.078125 -3.78125 C 10.078125 -4.5 10.5 -4.859375 11.34375 -4.859375 C 12.175781 -4.859375 12.59375 -4.5 12.59375 -3.78125 L 12.59375 -3.515625 C 12.59375 -2.878906 12.488281 -2.351562 12.28125 -1.9375 C 12.082031 -1.53125 11.773438 -1.171875 11.359375 -0.859375 C 10.554688 -0.285156 9.75 0 8.9375 0 L 5.109375 0 C 4.304688 0 3.523438 -0.285156 2.765625 -0.859375 C 2.398438 -1.171875 2.117188 -1.554688 1.921875 -2.015625 C 1.722656 -2.484375 1.625 -3.019531 1.625 -3.625 L 1.625 -10.125 C 1.625 -11.363281 2.003906 -12.273438 2.765625 -12.859375 C 3.140625 -13.140625 3.53125 -13.359375 3.9375 -13.515625 C 4.34375 -13.671875 4.734375 -13.75 5.109375 -13.75 L 8.9375 -13.75 C 9.300781 -13.75 9.703125 -13.675781 10.140625 -13.53125 C 10.585938 -13.394531 11.003906 -13.203125 11.390625 -12.953125 C 11.753906 -12.691406 12.046875 -12.332031 12.265625 -11.875 C 12.484375 -11.425781 12.59375 -10.890625 12.59375 -10.265625 L 12.59375 -7.1875 C 12.59375 -6.832031 12.488281 -6.519531 12.28125 -6.25 C 12.082031 -5.976562 11.707031 -5.84375 11.15625 -5.84375 L 6.234375 -5.84375 C 5.679688 -5.84375 5.390625 -6.195312 5.359375 -6.90625 C 5.359375 -7.625 5.648438 -7.984375 6.234375 -7.984375 L 10.109375 -7.984375 L 10.078125 -10.109375 C 10.078125 -10.484375 9.957031 -10.828125 9.71875 -11.140625 C 9.488281 -11.453125 9.09375 -11.609375 8.53125 -11.609375 L 5.6875 -11.609375 C 5.125 -11.609375 4.722656 -11.453125 4.484375 -11.140625 C 4.242188 -10.828125 4.125 -10.484375 4.125 -10.109375 Z M 4.125 -3.65625 "/></g></g></g><g fill="#ffffff" fill-opacity="1"><g transform="translate(206.879836, 195.034975)"><g><path d="M 5.0625 0 C 4.59375 0 4.144531 -0.0625 3.71875 -0.1875 C 3.289062 -0.320312 2.878906 -0.507812 2.484375 -0.75 L 2.484375 -0.734375 C 1.742188 -1.203125 1.375 -2.066406 1.375 -3.328125 L 1.375 -4.453125 C 1.375 -5.078125 1.484375 -5.617188 1.703125 -6.078125 C 1.921875 -6.546875 2.226562 -6.914062 2.625 -7.1875 L 2.59375 -7.1875 C 2.976562 -7.445312 3.382812 -7.640625 3.8125 -7.765625 C 4.238281 -7.898438 4.648438 -7.96875 5.046875 -7.96875 L 10.078125 -7.96875 L 10.078125 -10.078125 C 10.078125 -10.460938 9.957031 -10.8125 9.71875 -11.125 C 9.488281 -11.4375 9.09375 -11.59375 8.53125 -11.59375 L 5.859375 -11.59375 C 5.285156 -11.59375 4.882812 -11.453125 4.65625 -11.171875 C 4.4375 -10.890625 4.328125 -10.554688 4.328125 -10.171875 L 4.328125 -9.984375 C 4.328125 -9.203125 3.90625 -8.8125 3.0625 -8.8125 C 2.207031 -8.8125 1.78125 -9.203125 1.78125 -9.984375 L 1.78125 -10.203125 C 1.78125 -10.816406 1.890625 -11.335938 2.109375 -11.765625 C 2.328125 -12.191406 2.628906 -12.550781 3.015625 -12.84375 L 2.984375 -12.84375 C 3.378906 -13.101562 3.789062 -13.316406 4.21875 -13.484375 C 4.65625 -13.648438 5.070312 -13.734375 5.46875 -13.734375 L 8.9375 -13.734375 C 9.320312 -13.734375 9.726562 -13.648438 10.15625 -13.484375 C 10.59375 -13.316406 11.003906 -13.101562 11.390625 -12.84375 L 11.359375 -12.84375 C 11.753906 -12.550781 12.054688 -12.171875 12.265625 -11.703125 C 12.484375 -11.242188 12.59375 -10.710938 12.59375 -10.109375 L 12.59375 -0.953125 C 12.59375 -0.222656 12.175781 0.140625 11.34375 0.140625 C 11.175781 0.140625 11.019531 0.128906 10.875 0.109375 C 10.726562 0.0976562 10.597656 0.0625 10.484375 0 C 10.367188 -0.0703125 10.273438 -0.171875 10.203125 -0.296875 C 10.140625 -0.429688 10.109375 -0.609375 10.109375 -0.828125 L 10.078125 -5.8125 L 5.46875 -5.8125 C 5.132812 -5.8125 4.875 -5.773438 4.6875 -5.703125 C 4.507812 -5.628906 4.367188 -5.507812 4.265625 -5.34375 C 4.140625 -5.082031 4.050781 -4.878906 4 -4.734375 C 3.945312 -4.585938 3.921875 -4.425781 3.921875 -4.25 L 3.921875 -3.359375 C 3.921875 -2.960938 4.035156 -2.660156 4.265625 -2.453125 C 4.503906 -2.242188 4.914062 -2.140625 5.5 -2.140625 L 8.046875 -2.140625 C 8.609375 -2.140625 8.890625 -1.785156 8.890625 -1.078125 C 8.890625 -0.765625 8.820312 -0.503906 8.6875 -0.296875 C 8.550781 -0.0976562 8.335938 0 8.046875 0 Z M 5.0625 0 "/></g></g></g><g fill="#ffffff" fill-opacity="1"><g transform="translate(218.965968, 195.034975)"><g><path d="M 4.078125 -0.953125 C 4.078125 -0.222656 3.660156 0.140625 2.828125 0.140625 C 1.960938 0.140625 1.53125 -0.222656 1.53125 -0.953125 L 1.53125 -10.40625 C 1.53125 -11.644531 1.898438 -12.507812 2.640625 -13 C 3.390625 -13.488281 4.25 -13.734375 5.21875 -13.734375 L 7.828125 -13.734375 C 8.390625 -13.734375 8.671875 -13.375 8.671875 -12.65625 C 8.703125 -11.945312 8.421875 -11.59375 7.828125 -11.59375 L 5.40625 -11.59375 C 4.851562 -11.59375 4.492188 -11.484375 4.328125 -11.265625 C 4.160156 -11.054688 4.078125 -10.757812 4.078125 -10.375 Z M 4.078125 -0.953125 "/></g></g></g><g fill="#ffffff" fill-opacity="1"><g transform="translate(226.126204, 195.034975)"><g><path d="M 12.59375 -3.625 C 12.59375 -2.375 12.179688 -1.453125 11.359375 -0.859375 C 10.554688 -0.285156 9.75 0 8.9375 0 L 5.109375 0 C 4.304688 0 3.523438 -0.285156 2.765625 -0.859375 C 2.398438 -1.171875 2.117188 -1.554688 1.921875 -2.015625 C 1.722656 -2.484375 1.625 -3.019531 1.625 -3.625 L 1.625 -10.125 C 1.625 -11.363281 2.003906 -12.273438 2.765625 -12.859375 C 3.140625 -13.140625 3.53125 -13.359375 3.9375 -13.515625 C 4.34375 -13.671875 4.734375 -13.75 5.109375 -13.75 L 8.9375 -13.75 C 9.300781 -13.75 9.703125 -13.675781 10.140625 -13.53125 C 10.585938 -13.394531 11.003906 -13.203125 11.390625 -12.953125 C 11.753906 -12.691406 12.046875 -12.332031 12.265625 -11.875 C 12.484375 -11.425781 12.59375 -10.890625 12.59375 -10.265625 L 12.59375 -9.125 C 12.59375 -8.394531 12.175781 -8.03125 11.34375 -8.03125 C 10.5 -8.03125 10.078125 -8.394531 10.078125 -9.125 L 10.078125 -10.109375 C 10.078125 -10.484375 9.957031 -10.828125 9.71875 -11.140625 C 9.488281 -11.453125 9.09375 -11.609375 8.53125 -11.609375 L 5.6875 -11.609375 C 5.125 -11.609375 4.722656 -11.453125 4.484375 -11.140625 C 4.242188 -10.828125 4.125 -10.484375 4.125 -10.109375 L 4.125 -3.65625 C 4.125 -3.289062 4.242188 -2.945312 4.484375 -2.625 C 4.722656 -2.300781 5.125 -2.140625 5.6875 -2.140625 L 8.53125 -2.140625 C 9.09375 -2.140625 9.488281 -2.300781 9.71875 -2.625 C 9.957031 -2.945312 10.078125 -3.289062 10.078125 -3.65625 L 10.078125 -4.703125 C 10.078125 -5.410156 10.5 -5.765625 11.34375 -5.765625 C 12.175781 -5.765625 12.59375 -5.410156 12.59375 -4.703125 Z M 12.59375 -3.625 "/></g></g></g><g fill="#ffffff" fill-opacity="1"><g transform="translate(238.121126, 195.034975)"><g><path d="M 4.125 -0.953125 C 4.125 -0.222656 3.707031 0.140625 2.875 0.140625 C 2.039062 0.140625 1.625 -0.222656 1.625 -0.953125 L 1.625 -17.15625 C 1.625 -17.882812 2.039062 -18.25 2.875 -18.25 C 3.707031 -18.25 4.125 -17.882812 4.125 -17.15625 L 4.125 -13.734375 L 8.9375 -13.734375 C 9.71875 -13.734375 10.523438 -13.441406 11.359375 -12.859375 C 12.179688 -12.285156 12.59375 -11.375 12.59375 -10.125 L 12.59375 -0.953125 C 12.59375 -0.222656 12.175781 0.140625 11.34375 0.140625 C 10.5 0.140625 10.078125 -0.222656 10.078125 -0.953125 L 10.078125 -9.921875 C 10.078125 -10.316406 9.957031 -10.695312 9.71875 -11.0625 L 9.734375 -11.046875 C 9.535156 -11.410156 9.132812 -11.59375 8.53125 -11.59375 L 4.125 -11.59375 Z M 4.125 -0.953125 "/></g></g></g></svg>